solid shuttle_collision_octagonal
  facet normal 0 0 -1.00000000000
    outer loop
      vertex 0.0125000000000 0 0
      vertex 0 0.0125000000000 0
      vertex 0.00883883476483 0.00883883476483 0
    endloop
  endfacet
  facet normal 0 0 -1.00000000000
    outer loop
      vertex 0.0125000000000 0 0
      vertex -0.00883883476483 0.00883883476483 0
      vertex 0 0.0125000000000 0
    endloop
  endfacet
  facet normal 0 0 -1.00000000000
    outer loop
      vertex 0.0125000000000 0 0
      vertex -0.0125000000000 0 0
      vertex -0.00883883476483 0.00883883476483 0
    endloop
  endfacet
  facet normal 0 0 -1.00000000000
    outer loop
      vertex 0.0125000000000 0 0
      vertex -0.00883883476483 -0.00883883476483 0
      vertex -0.0125000000000 0 0
    endloop
  endfacet
  facet normal 0 0 -1.00000000000
    outer loop
      vertex 0.0125000000000 0 0
      vertex 0 -0.0125000000000 0
      vertex -0.00883883476483 -0.00883883476483 0
    endloop
  endfacet
  facet normal 0 0 -1.00000000000
    outer loop
      vertex 0.0125000000000 0 0
      vertex 0.00883883476483 -0.00883883476483 0
      vertex 0 -0.0125000000000 0
    endloop
  endfacet
  facet normal 0 0 1.00000000000
    outer loop
      vertex 0.0366154273188 0 0.0900000000000
      vertex 0.0258910169532 0.0258910169532 0.0900000000000
      vertex 0 0.0366154273188 0.0900000000000
    endloop
  endfacet
  facet normal 0 0 1.00000000000
    outer loop
      vertex 0.0366154273188 0 0.0900000000000
      vertex 0 0.0366154273188 0.0900000000000
      vertex -0.0258910169532 0.0258910169532 0.0900000000000
    endloop
  endfacet
  facet normal 0 0 1.00000000000
    outer loop
      vertex 0.0366154273188 0 0.0900000000000
      vertex -0.0258910169532 0.0258910169532 0.0900000000000
      vertex -0.0366154273188 0 0.0900000000000
    endloop
  endfacet
  facet normal 0 0 1.00000000000
    outer loop
      vertex 0.0366154273188 0 0.0900000000000
      vertex -0.0366154273188 0 0.0900000000000
      vertex -0.0258910169532 -0.0258910169532 0.0900000000000
    endloop
  endfacet
  facet normal 0 0 1.00000000000
    outer loop
      vertex 0.0366154273188 0 0.0900000000000
      vertex -0.0258910169532 -0.0258910169532 0.0900000000000
      vertex 0 -0.0366154273188 0.0900000000000
    endloop
  endfacet
  facet normal 0 0 1.00000000000
    outer loop
      vertex 0.0366154273188 0 0.0900000000000
      vertex 0 -0.0366154273188 0.0900000000000
      vertex 0.0258910169532 -0.0258910169532 0.0900000000000
    endloop
  endfacet
  facet normal 0.896808817745 0.371470375166 -0.240299198480
    outer loop
      vertex 0.0125000000000 0 0
      vertex 0.00883883476483 0.00883883476483 0
      vertex 0.0258910169532 0.0258910169532 0.0900000000000
    endloop
  endfacet
  facet normal 0.896808817745 0.371470375166 -0.240299198480
    outer loop
      vertex 0.0125000000000 0 0
      vertex 0.0258910169532 0.0258910169532 0.0900000000000
      vertex 0.0366154273188 0 0.0900000000000
    endloop
  endfacet
  facet normal 0.371470375166 0.896808817745 -0.240299198480
    outer loop
      vertex 0.00883883476483 0.00883883476483 0
      vertex 0 0.0125000000000 0
      vertex 0 0.0366154273188 0.0900000000000
    endloop
  endfacet
  facet normal 0.371470375166 0.896808817745 -0.240299198480
    outer loop
      vertex 0.00883883476483 0.00883883476483 0
      vertex 0 0.0366154273188 0.0900000000000
      vertex 0.0258910169532 0.0258910169532 0.0900000000000
    endloop
  endfacet
  facet normal -0.371470375166 0.896808817745 -0.240299198480
    outer loop
      vertex 0 0.0125000000000 0
      vertex -0.00883883476483 0.00883883476483 0
      vertex -0.0258910169532 0.0258910169532 0.0900000000000
    endloop
  endfacet
  facet normal -0.371470375166 0.896808817745 -0.240299198480
    outer loop
      vertex 0 0.0125000000000 0
      vertex -0.0258910169532 0.0258910169532 0.0900000000000
      vertex 0 0.0366154273188 0.0900000000000
    endloop
  endfacet
  facet normal -0.896808817745 0.371470375166 -0.240299198480
    outer loop
      vertex -0.00883883476483 0.00883883476483 0
      vertex -0.0125000000000 0 0
      vertex -0.0366154273188 0 0.0900000000000
    endloop
  endfacet
  facet normal -0.896808817745 0.371470375166 -0.240299198480
    outer loop
      vertex -0.00883883476483 0.00883883476483 0
      vertex -0.0366154273188 0 0.0900000000000
      vertex -0.0258910169532 0.0258910169532 0.0900000000000
    endloop
  endfacet
  facet normal -0.896808817745 -0.371470375166 -0.240299198480
    outer loop
      vertex -0.0125000000000 0 0
      vertex -0.00883883476483 -0.00883883476483 0
      vertex -0.0258910169532 -0.0258910169532 0.0900000000000
    endloop
  endfacet
  facet normal -0.896808817745 -0.371470375166 -0.240299198480
    outer loop
      vertex -0.0125000000000 0 0
      vertex -0.0258910169532 -0.0258910169532 0.0900000000000
      vertex -0.0366154273188 0 0.0900000000000
    endloop
  endfacet
  facet normal -0.371470375166 -0.896808817745 -0.240299198480
    outer loop
      vertex -0.00883883476483 -0.00883883476483 0
      vertex 0 -0.0125000000000 0
      vertex 0 -0.0366154273188 0.0900000000000
    endloop
  endfacet
  facet normal -0.371470375166 -0.896808817745 -0.240299198480
    outer loop
      vertex -0.00883883476483 -0.00883883476483 0
      vertex 0 -0.0366154273188 0.0900000000000
      vertex -0.0258910169532 -0.0258910169532 0.0900000000000
    endloop
  endfacet
  facet normal 0.371470375166 -0.896808817745 -0.240299198480
    outer loop
      vertex 0 -0.0125000000000 0
      vertex 0.00883883476483 -0.00883883476483 0
      vertex 0.0258910169532 -0.0258910169532 0.0900000000000
    endloop
  endfacet
  facet normal 0.371470375166 -0.896808817745 -0.240299198480
    outer loop
      vertex 0 -0.0125000000000 0
      vertex 0.0258910169532 -0.0258910169532 0.0900000000000
      vertex 0 -0.0366154273188 0.0900000000000
    endloop
  endfacet
  facet normal 0.896808817745 -0.371470375166 -0.240299198480
    outer loop
      vertex 0.00883883476483 -0.00883883476483 0
      vertex 0.0125000000000 0 0
      vertex 0.0366154273188 0 0.0900000000000
    endloop
  endfacet
  facet normal 0.896808817745 -0.371470375166 -0.240299198480
    outer loop
      vertex 0.00883883476483 -0.00883883476483 0
      vertex 0.0366154273188 0 0.0900000000000
      vertex 0.0258910169532 -0.0258910169532 0.0900000000000
    endloop
  endfacet
endsolid shuttle_collision_octagonal
